<svg id="visual" viewBox="0 0 1920 1080" width="1920" height="1080" xmlns="http://www.w3.org/2000/svg" xmlns:xlink="http://www.w3.org/1999/xlink" version="1.1"><rect x="0" y="0" width="1920" height="1080" fill="#001220"></rect><defs><linearGradient id="grad1_0" x1="43.8%" y1="100%" x2="100%" y2="0%"><stop offset="14.444444444444446%" stop-color="#fbae3c" stop-opacity="1"></stop><stop offset="85.55555555555554%" stop-color="#fbae3c" stop-opacity="1"></stop></linearGradient></defs><defs><linearGradient id="grad1_1" x1="43.8%" y1="100%" x2="100%" y2="0%"><stop offset="14.444444444444446%" stop-color="#fbae3c" stop-opacity="1"></stop><stop offset="85.55555555555554%" stop-color="#f48350" stop-opacity="1"></stop></linearGradient></defs><defs><linearGradient id="grad1_2" x1="43.8%" y1="100%" x2="100%" y2="0%"><stop offset="14.444444444444446%" stop-color="#d96162" stop-opacity="1"></stop><stop offset="85.55555555555554%" stop-color="#f48350" stop-opacity="1"></stop></linearGradient></defs><defs><linearGradient id="grad1_3" x1="43.8%" y1="100%" x2="100%" y2="0%"><stop offset="14.444444444444446%" stop-color="#d96162" stop-opacity="1"></stop><stop offset="85.55555555555554%" stop-color="#af4b6d" stop-opacity="1"></stop></linearGradient></defs><defs><linearGradient id="grad1_4" x1="43.8%" y1="100%" x2="100%" y2="0%"><stop offset="14.444444444444446%" stop-color="#7c3e6b" stop-opacity="1"></stop><stop offset="85.55555555555554%" stop-color="#af4b6d" stop-opacity="1"></stop></linearGradient></defs><defs><linearGradient id="grad1_5" x1="43.8%" y1="100%" x2="100%" y2="0%"><stop offset="14.444444444444446%" stop-color="#7c3e6b" stop-opacity="1"></stop><stop offset="85.55555555555554%" stop-color="#49335c" stop-opacity="1"></stop></linearGradient></defs><defs><linearGradient id="grad1_6" x1="43.8%" y1="100%" x2="100%" y2="0%"><stop offset="14.444444444444446%" stop-color="#1d2540" stop-opacity="1"></stop><stop offset="85.55555555555554%" stop-color="#49335c" stop-opacity="1"></stop></linearGradient></defs><defs><linearGradient id="grad1_7" x1="43.8%" y1="100%" x2="100%" y2="0%"><stop offset="14.444444444444446%" stop-color="#1d2540" stop-opacity="1"></stop><stop offset="85.55555555555554%" stop-color="#001220" stop-opacity="1"></stop></linearGradient></defs><defs><linearGradient id="grad2_0" x1="0%" y1="100%" x2="56.3%" y2="0%"><stop offset="14.444444444444446%" stop-color="#fbae3c" stop-opacity="1"></stop><stop offset="85.55555555555554%" stop-color="#fbae3c" stop-opacity="1"></stop></linearGradient></defs><defs><linearGradient id="grad2_1" x1="0%" y1="100%" x2="56.3%" y2="0%"><stop offset="14.444444444444446%" stop-color="#f48350" stop-opacity="1"></stop><stop offset="85.55555555555554%" stop-color="#fbae3c" stop-opacity="1"></stop></linearGradient></defs><defs><linearGradient id="grad2_2" x1="0%" y1="100%" x2="56.3%" y2="0%"><stop offset="14.444444444444446%" stop-color="#f48350" stop-opacity="1"></stop><stop offset="85.55555555555554%" stop-color="#d96162" stop-opacity="1"></stop></linearGradient></defs><defs><linearGradient id="grad2_3" x1="0%" y1="100%" x2="56.3%" y2="0%"><stop offset="14.444444444444446%" stop-color="#af4b6d" stop-opacity="1"></stop><stop offset="85.55555555555554%" stop-color="#d96162" stop-opacity="1"></stop></linearGradient></defs><defs><linearGradient id="grad2_4" x1="0%" y1="100%" x2="56.3%" y2="0%"><stop offset="14.444444444444446%" stop-color="#af4b6d" stop-opacity="1"></stop><stop offset="85.55555555555554%" stop-color="#7c3e6b" stop-opacity="1"></stop></linearGradient></defs><defs><linearGradient id="grad2_5" x1="0%" y1="100%" x2="56.3%" y2="0%"><stop offset="14.444444444444446%" stop-color="#49335c" stop-opacity="1"></stop><stop offset="85.55555555555554%" stop-color="#7c3e6b" stop-opacity="1"></stop></linearGradient></defs><defs><linearGradient id="grad2_6" x1="0%" y1="100%" x2="56.3%" y2="0%"><stop offset="14.444444444444446%" stop-color="#49335c" stop-opacity="1"></stop><stop offset="85.55555555555554%" stop-color="#1d2540" stop-opacity="1"></stop></linearGradient></defs><defs><linearGradient id="grad2_7" x1="0%" y1="100%" x2="56.3%" y2="0%"><stop offset="14.444444444444446%" stop-color="#001220" stop-opacity="1"></stop><stop offset="85.55555555555554%" stop-color="#1d2540" stop-opacity="1"></stop></linearGradient></defs><g transform="translate(1920, 1080)"><path d="M-432 0C-425 -83 -418 -166 -374.1 -216C-330.2 -266 -249.5 -283 -181 -313.5C-112.5 -344 -56.3 -388 0 -432L0 0Z" fill="#0c1c30"></path><path d="M-378 0C-371.9 -72.6 -365.7 -145.2 -327.4 -189C-289 -232.8 -218.3 -247.6 -158.4 -274.3C-98.4 -301 -49.2 -339.5 0 -378L0 0Z" fill="#312c4f"></path><path d="M-324 0C-318.7 -62.2 -313.5 -124.5 -280.6 -162C-247.7 -199.5 -187.1 -212.3 -135.8 -235.1C-84.4 -258 -42.2 -291 0 -324L0 0Z" fill="#623965"></path><path d="M-270 0C-265.6 -51.9 -261.2 -103.7 -233.8 -135C-206.4 -166.3 -155.9 -176.9 -113.1 -195.9C-70.3 -215 -35.2 -242.5 0 -270L0 0Z" fill="#96446e"></path><path d="M-216 0C-212.5 -41.5 -209 -83 -187.1 -108C-165.1 -133 -124.7 -141.5 -90.5 -156.8C-56.3 -172 -28.1 -194 0 -216L0 0Z" fill="#c55469"></path><path d="M-162 0C-159.4 -31.1 -156.7 -62.2 -140.3 -81C-123.8 -99.8 -93.6 -106.1 -67.9 -117.6C-42.2 -129 -21.1 -145.5 0 -162L0 0Z" fill="#e9705a"></path><path d="M-108 0C-106.2 -20.7 -104.5 -41.5 -93.5 -54C-82.6 -66.5 -62.4 -70.8 -45.3 -78.4C-28.1 -86 -14.1 -97 0 -108L0 0Z" fill="#fa9845"></path><path d="M-54 0C-53.1 -10.4 -52.2 -20.7 -46.8 -27C-41.3 -33.3 -31.2 -35.4 -22.6 -39.2C-14.1 -43 -7 -48.5 0 -54L0 0Z" fill="#fbae3c"></path></g><g transform="translate(0, 0)"><path d="M432 0C360.7 40.5 289.5 81 262.4 151.5C235.3 222 252.4 322.4 216 374.1C179.6 425.9 89.8 428.9 0 432L0 0Z" fill="#0c1c30"></path><path d="M378 0C315.7 35.5 253.3 70.9 229.6 132.6C205.9 194.2 220.8 282.1 189 327.4C157.2 372.6 78.6 375.3 0 378L0 0Z" fill="#312c4f"></path><path d="M324 0C270.6 30.4 217.1 60.8 196.8 113.6C176.5 166.5 189.3 241.8 162 280.6C134.7 319.4 67.4 321.7 0 324L0 0Z" fill="#623965"></path><path d="M270 0C225.5 25.3 180.9 50.6 164 94.7C147.1 138.7 157.7 201.5 135 233.8C112.3 266.2 56.1 268.1 0 270L0 0Z" fill="#96446e"></path><path d="M216 0C180.4 20.3 144.7 40.5 131.2 75.7C117.7 111 126.2 161.2 108 187.1C89.8 212.9 44.9 214.5 0 216L0 0Z" fill="#c55469"></path><path d="M162 0C135.3 15.2 108.6 30.4 98.4 56.8C88.2 83.2 94.6 120.9 81 140.3C67.4 159.7 33.7 160.8 0 162L0 0Z" fill="#e9705a"></path><path d="M108 0C90.2 10.1 72.4 20.3 65.6 37.9C58.8 55.5 63.1 80.6 54 93.5C44.9 106.5 22.5 107.2 0 108L0 0Z" fill="#fa9845"></path><path d="M54 0C45.1 5.1 36.2 10.1 32.8 18.9C29.4 27.7 31.5 40.3 27 46.8C22.5 53.2 11.2 53.6 0 54L0 0Z" fill="#fbae3c"></path></g></svg>