<svg id="visual" viewBox="0 0 900 600" width="900" height="600" xmlns="http://www.w3.org/2000/svg" xmlns:xlink="http://www.w3.org/1999/xlink" version="1.1"><rect width="900" height="600" fill="#02090c"></rect><g><g transform="translate(428 196)"><path d="M29.9 15C23.5 28.2 -7.2 25 -16.2 10.2C-25.2 -4.6 -12.6 -31 2.7 -29.4C18.1 -27.8 36.2 1.8 29.9 15Z" fill="none" stroke="#ffffff" stroke-width="1"></path></g><g transform="translate(401 353)"><path d="M23.7 14.2C17.5 24.3 -9.6 22.7 -17 11.9C-24.5 1 -12.2 -19.2 1.3 -18.5C14.9 -17.7 29.8 4 23.7 14.2Z" fill="none" stroke="#ffffff" stroke-width="1"></path></g><g transform="translate(152 126)"><path d="M23.8 13.3C15.4 28.4 -17.7 28.9 -25.8 13.9C-33.8 -1 -16.9 -31.2 -0.4 -31.5C16.1 -31.7 32.3 -1.9 23.8 13.3Z" stroke="#ffffff" fill="none" stroke-width="1"></path></g><g transform="translate(826 435)"><path d="M24.4 15.4C16.2 28.2 -16.4 28.3 -24.6 15.5C-32.7 2.6 -16.4 -23.1 0 -23.1C16.3 -23.1 32.5 2.5 24.4 15.4Z" stroke="#ffffff" fill="none" stroke-width="1"></path></g><g transform="translate(424 494)"><path d="M28 18C19.2 31.4 -16.7 30.9 -25.9 17.3C-35.1 3.6 -17.5 -23.1 0.4 -22.9C18.4 -22.6 36.8 4.6 28 18Z" stroke="#ffffff" fill="none" stroke-width="1"></path></g><g transform="translate(79 260)"><path d="M24.6 13.2C18.2 25.4 -10.3 23.9 -18.1 10.9C-25.8 -2.1 -12.9 -26.6 1.3 -25.8C15.5 -25.1 31.1 0.9 24.6 13.2Z" stroke="#ffffff" fill="none" stroke-width="1"></path></g><g transform="translate(635 379)"><path d="M19.2 11.5C10.9 25.4 -19.3 27 -26.1 13.9C-33 0.8 -16.5 -27 -1.4 -27.8C13.7 -28.6 27.4 -2.4 19.2 11.5Z" stroke="#ffffff" fill="none" stroke-width="1"></path></g><g transform="translate(741 114)"><path d="M14.9 12C6.9 22.5 -20.7 25.2 -26.4 15.9C-32.2 6.7 -16.1 -14.5 -2.3 -15.8C11.5 -17.1 23 1.4 14.9 12Z" stroke="#ffffff" fill="none" stroke-width="1"></path></g><g transform="translate(223 344)"><path d="M20.7 13.8C12.1 26.8 -19.6 28.3 -27 16C-34.3 3.7 -17.1 -22.4 -1.2 -23.1C14.6 -23.8 29.3 0.8 20.7 13.8Z" stroke="#ffffff" fill="none" stroke-width="1"></path></g><g transform="translate(86 486)"><path d="M14.4 9.1C6.4 22.3 -21 25.1 -26.7 13.3C-32.3 1.5 -16.1 -25 -2.4 -26.4C11.2 -27.8 22.5 -4.2 14.4 9.1Z" stroke="#ffffff" fill="none" stroke-width="1"></path></g><g transform="translate(287 198)"><path d="M23.8 16.5C15.4 28.4 -17.6 28.8 -25.7 17.1C-33.8 5.5 -16.9 -18.3 -0.4 -18.5C16.1 -18.7 32.3 4.6 23.8 16.5Z" stroke="#ffffff" fill="none" stroke-width="1"></path></g><g transform="translate(682 248)"><path d="M13.9 9.2C7.6 18.8 -14.8 20.2 -19.9 11.3C-24.9 2.4 -12.4 -16.7 -1.2 -17.4C10 -18 20.1 -0.3 13.9 9.2Z" stroke="#ffffff" fill="none" stroke-width="1"></path></g><g transform="translate(551 88)"><path d="M17.8 11.7C11.3 21.6 -14 22.1 -20.1 12.4C-26.2 2.7 -13.1 -17.2 -0.4 -17.4C12.2 -17.7 24.4 1.7 17.8 11.7Z" stroke="#ffffff" fill="none" stroke-width="1"></path></g><g transform="translate(270 475)"><path d="M13.9 7.6C8 18.2 -13.7 19.3 -18.6 9.2C-23.6 -0.9 -11.8 -22.3 -0.9 -22.8C9.9 -23.4 19.8 -3.1 13.9 7.6Z" stroke="#ffffff" fill="none" stroke-width="1"></path></g><g transform="translate(827 292)"><path d="M23.2 13.2C14.8 28 -17.8 28.6 -25.7 14C-33.6 -0.5 -16.8 -30.1 -0.5 -30.4C15.8 -30.7 31.7 -1.6 23.2 13.2Z" stroke="#ffffff" fill="none" stroke-width="1"></path></g><g transform="translate(527 292)"><path d="M19.8 10.8C11.7 25.5 -18.5 26.8 -25.5 12.8C-32.4 -1.2 -16.2 -30.6 -1.1 -31.2C13.9 -31.9 27.9 -3.9 19.8 10.8Z" stroke="#ffffff" fill="none" stroke-width="1"></path></g><g transform="translate(703 529)"><path d="M20.1 12.8C13.5 23.1 -13.2 23 -19.8 12.8C-26.5 2.5 -13.3 -18 0 -17.9C13.4 -17.9 26.7 2.6 20.1 12.8Z" stroke="#ffffff" fill="none" stroke-width="1"></path></g><g transform="translate(562 527)"><path d="M20.7 12C13.2 24.9 -15.9 25.4 -22.9 12.8C-30 0.1 -15 -25.8 -0.4 -26C14.1 -26.3 28.2 -1 20.7 12Z" stroke="#ffffff" fill="none" stroke-width="1"></path></g></g></svg>