<svg id="visual" viewBox="0 0 1920 1080" width="1920" height="1080" xmlns="http://www.w3.org/2000/svg" xmlns:xlink="http://www.w3.org/1999/xlink" version="1.1"><rect width="1920" height="1080" fill="#05131c"></rect><g><g transform="translate(1852 121)"><path d="M0 -25.7L22.2 -12.8L22.2 12.8L0 25.7L-22.2 12.8L-22.2 -12.8Z" fill="none" stroke="#213b48" stroke-width="6"></path></g><g transform="translate(700 20)"><path d="M0 -22L19.1 -11L19.1 11L0 22L-19.1 11L-19.1 -11Z" fill="none" stroke="#213b48" stroke-width="6"></path></g><g transform="translate(541 109)"><path d="M0 -14L12.1 -7L12.1 7L0 14L-12.1 7L-12.1 -7Z" fill="none" stroke="#213b48" stroke-width="6"></path></g><g transform="translate(5 537)"><path d="M0 -13L11.3 -6.5L11.3 6.5L0 13L-11.3 6.5L-11.3 -6.5Z" fill="none" stroke="#213b48" stroke-width="6"></path></g><g transform="translate(606 573)"><path d="M0 -21L18.2 -10.5L18.2 10.5L0 21L-18.2 10.5L-18.2 -10.5Z" fill="none" stroke="#213b48" stroke-width="6"></path></g><g transform="translate(1274 939)"><path d="M0 -23L19.9 -11.5L19.9 11.5L0 23L-19.9 11.5L-19.9 -11.5Z" fill="none" stroke="#213b48" stroke-width="6"></path></g><g transform="translate(1892 527)"><path d="M0 -17L14.7 -8.5L14.7 8.5L0 17L-14.7 8.5L-14.7 -8.5Z" fill="none" stroke="#213b48" stroke-width="6"></path></g><g transform="translate(102 151)"><path d="M0 -12L10.4 -6L10.4 6L0 12L-10.4 6L-10.4 -6Z" fill="none" stroke="#213b48" stroke-width="6"></path></g><g transform="translate(1893 472)"><path d="M0 -15L13 -7.5L13 7.5L0 15L-13 7.5L-13 -7.5Z" fill="none" stroke="#213b48" stroke-width="6"></path></g><g transform="translate(718 797)"><path d="M0 -12L10.4 -6L10.4 6L0 12L-10.4 6L-10.4 -6Z" fill="none" stroke="#213b48" stroke-width="6"></path></g><g transform="translate(169 481)"><path d="M0 -23L19.9 -11.5L19.9 11.5L0 23L-19.9 11.5L-19.9 -11.5Z" fill="none" stroke="#213b48" stroke-width="6"></path></g><g transform="translate(240 592)"><path d="M0 -19L16.5 -9.5L16.5 9.5L0 19L-16.5 9.5L-16.5 -9.5Z" fill="none" stroke="#213b48" stroke-width="6"></path></g><g transform="translate(663 579)"><path d="M0 -20L17.3 -10L17.3 10L0 20L-17.3 10L-17.3 -10Z" fill="none" stroke="#213b48" stroke-width="6"></path></g><g transform="translate(294 780)"><path d="M0 -24L20.8 -12L20.8 12L0 24L-20.8 12L-20.8 -12Z" fill="none" stroke="#213b48" stroke-width="6"></path></g><g transform="translate(938 139)"><path d="M0 -15L13 -7.5L13 7.5L0 15L-13 7.5L-13 -7.5Z" fill="none" stroke="#213b48" stroke-width="6"></path></g><g transform="translate(176 896)"><path d="M0 -19L16.5 -9.5L16.5 9.5L0 19L-16.5 9.5L-16.5 -9.5Z" fill="none" stroke="#213b48" stroke-width="6"></path></g><g transform="translate(1039 467)"><path d="M0 -14L12.1 -7L12.1 7L0 14L-12.1 7L-12.1 -7Z" fill="none" stroke="#213b48" stroke-width="6"></path></g><g transform="translate(991 932)"><path d="M0 -18L15.6 -9L15.6 9L0 18L-15.6 9L-15.6 -9Z" fill="none" stroke="#213b48" stroke-width="6"></path></g><g transform="translate(1710 972)"><path d="M0 -19L16.5 -9.5L16.5 9.5L0 19L-16.5 9.5L-16.5 -9.5Z" fill="none" stroke="#213b48" stroke-width="6"></path></g><g transform="translate(1883 799)"><path d="M0 -23L19.9 -11.5L19.9 11.5L0 23L-19.9 11.5L-19.9 -11.5Z" fill="none" stroke="#213b48" stroke-width="6"></path></g><g transform="translate(1439 112)"><path d="M0 -21L18.2 -10.5L18.2 10.5L0 21L-18.2 10.5L-18.2 -10.5Z" fill="none" stroke="#213b48" stroke-width="6"></path></g><g transform="translate(385 86)"><path d="M0 -22L19.1 -11L19.1 11L0 22L-19.1 11L-19.1 -11Z" fill="none" stroke="#213b48" stroke-width="6"></path></g><g transform="translate(132 826)"><path d="M0 -18L15.6 -9L15.6 9L0 18L-15.6 9L-15.6 -9Z" fill="none" stroke="#213b48" stroke-width="6"></path></g><g transform="translate(940 905)"><path d="M0 -13L11.3 -6.5L11.3 6.5L0 13L-11.3 6.5L-11.3 -6.5Z" fill="none" stroke="#213b48" stroke-width="6"></path></g><g transform="translate(260 699)"><path d="M0 -12L10.4 -6L10.4 6L0 12L-10.4 6L-10.4 -6Z" fill="none" stroke="#213b48" stroke-width="6"></path></g><g transform="translate(63 816)"><path d="M0 -18L15.6 -9L15.6 9L0 18L-15.6 9L-15.6 -9Z" fill="none" stroke="#213b48" stroke-width="6"></path></g><g transform="translate(1072 890)"><path d="M0 -17L14.7 -8.5L14.7 8.5L0 17L-14.7 8.5L-14.7 -8.5Z" fill="none" stroke="#213b48" stroke-width="6"></path></g><g transform="translate(757 728)"><path d="M0 -18L15.6 -9L15.6 9L0 18L-15.6 9L-15.6 -9Z" fill="none" stroke="#213b48" stroke-width="6"></path></g><g transform="translate(741 82)"><path d="M0 -23L19.9 -11.5L19.9 11.5L0 23L-19.9 11.5L-19.9 -11.5Z" fill="none" stroke="#213b48" stroke-width="6"></path></g><g transform="translate(354 835)"><path d="M0 -14L12.1 -7L12.1 7L0 14L-12.1 7L-12.1 -7Z" fill="none" stroke="#213b48" stroke-width="6"></path></g><g transform="translate(377 403)"><path d="M0 -16L13.9 -8L13.9 8L0 16L-13.9 8L-13.9 -8Z" fill="none" stroke="#213b48" stroke-width="6"></path></g><g transform="translate(280 284)"><path d="M0 -22L19.1 -11L19.1 11L0 22L-19.1 11L-19.1 -11Z" fill="none" stroke="#213b48" stroke-width="6"></path></g><g transform="translate(1839 646)"><path d="M0 -14L12.1 -7L12.1 7L0 14L-12.1 7L-12.1 -7Z" fill="none" stroke="#213b48" stroke-width="6"></path></g><g transform="translate(1491 608)"><path d="M0 -22L19.1 -11L19.1 11L0 22L-19.1 11L-19.1 -11Z" fill="none" stroke="#213b48" stroke-width="6"></path></g><g transform="translate(1648 436)"><path d="M0 -18L15.6 -9L15.6 9L0 18L-15.6 9L-15.6 -9Z" fill="none" stroke="#213b48" stroke-width="6"></path></g><g transform="translate(860 929)"><path d="M0 -15L13 -7.5L13 7.5L0 15L-13 7.5L-13 -7.5Z" fill="none" stroke="#213b48" stroke-width="6"></path></g><g transform="translate(402 921)"><path d="M0 -14L12.1 -7L12.1 7L0 14L-12.1 7L-12.1 -7Z" fill="none" stroke="#213b48" stroke-width="6"></path></g><g transform="translate(1405 491)"><path d="M0 -14L12.1 -7L12.1 7L0 14L-12.1 7L-12.1 -7Z" fill="none" stroke="#213b48" stroke-width="6"></path></g><g transform="translate(1526 370)"><path d="M0 -22L19.1 -11L19.1 11L0 22L-19.1 11L-19.1 -11Z" fill="none" stroke="#213b48" stroke-width="6"></path></g><g transform="translate(77 208)"><path d="M0 -13L11.3 -6.5L11.3 6.5L0 13L-11.3 6.5L-11.3 -6.5Z" fill="none" stroke="#213b48" stroke-width="6"></path></g><g transform="translate(256 169)"><path d="M0 -22L19.1 -11L19.1 11L0 22L-19.1 11L-19.1 -11Z" fill="none" stroke="#213b48" stroke-width="6"></path></g><g transform="translate(290 5)"><path d="M0 -18L15.6 -9L15.6 9L0 18L-15.6 9L-15.6 -9Z" fill="none" stroke="#213b48" stroke-width="6"></path></g><g transform="translate(1336 1038)"><path d="M0 -19L16.5 -9.5L16.5 9.5L0 19L-16.5 9.5L-16.5 -9.5Z" fill="none" stroke="#213b48" stroke-width="6"></path></g><g transform="translate(242 854)"><path d="M0 -22L19.1 -11L19.1 11L0 22L-19.1 11L-19.1 -11Z" fill="none" stroke="#213b48" stroke-width="6"></path></g><g transform="translate(1706 1042)"><path d="M0 -21L18.2 -10.5L18.2 10.5L0 21L-18.2 10.5L-18.2 -10.5Z" fill="none" stroke="#213b48" stroke-width="6"></path></g><g transform="translate(306 481)"><path d="M0 -12L10.4 -6L10.4 6L0 12L-10.4 6L-10.4 -6Z" fill="none" stroke="#213b48" stroke-width="6"></path></g><g transform="translate(323 547)"><path d="M0 -22L19.1 -11L19.1 11L0 22L-19.1 11L-19.1 -11Z" fill="none" stroke="#213b48" stroke-width="6"></path></g><g transform="translate(1836 995)"><path d="M0 -20L17.3 -10L17.3 10L0 20L-17.3 10L-17.3 -10Z" fill="none" stroke="#213b48" stroke-width="6"></path></g><g transform="translate(1559 478)"><path d="M0 -24L20.8 -12L20.8 12L0 24L-20.8 12L-20.8 -12Z" fill="none" stroke="#213b48" stroke-width="6"></path></g><g transform="translate(720 381)"><path d="M0 -21L18.2 -10.5L18.2 10.5L0 21L-18.2 10.5L-18.2 -10.5Z" fill="none" stroke="#213b48" stroke-width="6"></path></g><g transform="translate(1030 324)"><path d="M0 -19L16.5 -9.5L16.5 9.5L0 19L-16.5 9.5L-16.5 -9.5Z" fill="none" stroke="#213b48" stroke-width="6"></path></g><g transform="translate(1191 985)"><path d="M0 -21L18.2 -10.5L18.2 10.5L0 21L-18.2 10.5L-18.2 -10.5Z" fill="none" stroke="#213b48" stroke-width="6"></path></g><g transform="translate(983 813)"><path d="M0 -19L16.5 -9.5L16.5 9.5L0 19L-16.5 9.5L-16.5 -9.5Z" fill="none" stroke="#213b48" stroke-width="6"></path></g><g transform="translate(1832 865)"><path d="M0 -22L19.1 -11L19.1 11L0 22L-19.1 11L-19.1 -11Z" fill="none" stroke="#213b48" stroke-width="6"></path></g><g transform="translate(1099 794)"><path d="M0 -24L20.8 -12L20.8 12L0 24L-20.8 12L-20.8 -12Z" fill="none" stroke="#213b48" stroke-width="6"></path></g><g transform="translate(917 543)"><path d="M0 -24L20.8 -12L20.8 12L0 24L-20.8 12L-20.8 -12Z" fill="none" stroke="#213b48" stroke-width="6"></path></g><g transform="translate(1079 214)"><path d="M0 -14L12.1 -7L12.1 7L0 14L-12.1 7L-12.1 -7Z" fill="none" stroke="#213b48" stroke-width="6"></path></g><g transform="translate(1864 190)"><path d="M0 -18L15.6 -9L15.6 9L0 18L-15.6 9L-15.6 -9Z" fill="none" stroke="#213b48" stroke-width="6"></path></g><g transform="translate(1505 294)"><path d="M0 -20L17.3 -10L17.3 10L0 20L-17.3 10L-17.3 -10Z" fill="none" stroke="#213b48" stroke-width="6"></path></g><g transform="translate(903 1054)"><path d="M0 -21L18.2 -10.5L18.2 10.5L0 21L-18.2 10.5L-18.2 -10.5Z" fill="none" stroke="#213b48" stroke-width="6"></path></g><g transform="translate(409 39)"><path d="M0 -22L19.1 -11L19.1 11L0 22L-19.1 11L-19.1 -11Z" fill="none" stroke="#213b48" stroke-width="6"></path></g><g transform="translate(1417 658)"><path d="M0 -13L11.3 -6.5L11.3 6.5L0 13L-11.3 6.5L-11.3 -6.5Z" fill="none" stroke="#213b48" stroke-width="6"></path></g><g transform="translate(1377 564)"><path d="M0 -22L19.1 -11L19.1 11L0 22L-19.1 11L-19.1 -11Z" fill="none" stroke="#213b48" stroke-width="6"></path></g><g transform="translate(526 779)"><path d="M0 -23L19.9 -11.5L19.9 11.5L0 23L-19.9 11.5L-19.9 -11.5Z" fill="none" stroke="#213b48" stroke-width="6"></path></g><g transform="translate(1322 759)"><path d="M0 -22L19.1 -11L19.1 11L0 22L-19.1 11L-19.1 -11Z" fill="none" stroke="#213b48" stroke-width="6"></path></g><g transform="translate(280 434)"><path d="M0 -18L15.6 -9L15.6 9L0 18L-15.6 9L-15.6 -9Z" fill="none" stroke="#213b48" stroke-width="6"></path></g><g transform="translate(193 366)"><path d="M0 -14L12.1 -7L12.1 7L0 14L-12.1 7L-12.1 -7Z" fill="none" stroke="#213b48" stroke-width="6"></path></g><g transform="translate(514 189)"><path d="M0 -22L19.1 -11L19.1 11L0 22L-19.1 11L-19.1 -11Z" fill="none" stroke="#213b48" stroke-width="6"></path></g><g transform="translate(311 633)"><path d="M0 -12L10.4 -6L10.4 6L0 12L-10.4 6L-10.4 -6Z" fill="none" stroke="#213b48" stroke-width="6"></path></g><g transform="translate(837 197)"><path d="M0 -14L12.1 -7L12.1 7L0 14L-12.1 7L-12.1 -7Z" fill="none" stroke="#213b48" stroke-width="6"></path></g><g transform="translate(1174 528)"><path d="M0 -23L19.9 -11.5L19.9 11.5L0 23L-19.9 11.5L-19.9 -11.5Z" fill="none" stroke="#213b48" stroke-width="6"></path></g><g transform="translate(752 1008)"><path d="M0 -18L15.6 -9L15.6 9L0 18L-15.6 9L-15.6 -9Z" fill="none" stroke="#213b48" stroke-width="6"></path></g><g transform="translate(1728 635)"><path d="M0 -15L13 -7.5L13 7.5L0 15L-13 7.5L-13 -7.5Z" fill="none" stroke="#213b48" stroke-width="6"></path></g><g transform="translate(1160 305)"><path d="M0 -13L11.3 -6.5L11.3 6.5L0 13L-11.3 6.5L-11.3 -6.5Z" fill="none" stroke="#213b48" stroke-width="6"></path></g><g transform="translate(1410 1014)"><path d="M0 -16L13.9 -8L13.9 8L0 16L-13.9 8L-13.9 -8Z" fill="none" stroke="#213b48" stroke-width="6"></path></g><g transform="translate(865 316)"><path d="M0 -21L18.2 -10.5L18.2 10.5L0 21L-18.2 10.5L-18.2 -10.5Z" fill="none" stroke="#213b48" stroke-width="6"></path></g><g transform="translate(1808 578)"><path d="M0 -18L15.6 -9L15.6 9L0 18L-15.6 9L-15.6 -9Z" fill="none" stroke="#213b48" stroke-width="6"></path></g><g transform="translate(1378 890)"><path d="M0 -17L14.7 -8.5L14.7 8.5L0 17L-14.7 8.5L-14.7 -8.5Z" fill="none" stroke="#213b48" stroke-width="6"></path></g><g transform="translate(1771 480)"><path d="M0 -24L20.8 -12L20.8 12L0 24L-20.8 12L-20.8 -12Z" fill="none" stroke="#213b48" stroke-width="6"></path></g><g transform="translate(264 54)"><path d="M0 -24L20.8 -12L20.8 12L0 24L-20.8 12L-20.8 -12Z" fill="none" stroke="#213b48" stroke-width="6"></path></g><g transform="translate(1157 422)"><path d="M0 -23L19.9 -11.5L19.9 11.5L0 23L-19.9 11.5L-19.9 -11.5Z" fill="none" stroke="#213b48" stroke-width="6"></path></g><g transform="translate(1318 179)"><path d="M0 -23L19.9 -11.5L19.9 11.5L0 23L-19.9 11.5L-19.9 -11.5Z" fill="none" stroke="#213b48" stroke-width="6"></path></g><g transform="translate(640 773)"><path d="M0 -20L17.3 -10L17.3 10L0 20L-17.3 10L-17.3 -10Z" fill="none" stroke="#213b48" stroke-width="6"></path></g><g transform="translate(1357 705)"><path d="M0 -24L20.8 -12L20.8 12L0 24L-20.8 12L-20.8 -12Z" fill="none" stroke="#213b48" stroke-width="6"></path></g><g transform="translate(352 761)"><path d="M0 -23L19.9 -11.5L19.9 11.5L0 23L-19.9 11.5L-19.9 -11.5Z" fill="none" stroke="#213b48" stroke-width="6"></path></g><g transform="translate(992 494)"><path d="M0 -19L16.5 -9.5L16.5 9.5L0 19L-16.5 9.5L-16.5 -9.5Z" fill="none" stroke="#213b48" stroke-width="6"></path></g><g transform="translate(1587 1020)"><path d="M0 -14L12.1 -7L12.1 7L0 14L-12.1 7L-12.1 -7Z" fill="none" stroke="#213b48" stroke-width="6"></path></g><g transform="translate(976 368)"><path d="M0 -14L12.1 -7L12.1 7L0 14L-12.1 7L-12.1 -7Z" fill="none" stroke="#213b48" stroke-width="6"></path></g><g transform="translate(394 459)"><path d="M0 -16L13.9 -8L13.9 8L0 16L-13.9 8L-13.9 -8Z" fill="none" stroke="#213b48" stroke-width="6"></path></g><g transform="translate(881 656)"><path d="M0 -14L12.1 -7L12.1 7L0 14L-12.1 7L-12.1 -7Z" fill="none" stroke="#213b48" stroke-width="6"></path></g><g transform="translate(1495 512)"><path d="M0 -14L12.1 -7L12.1 7L0 14L-12.1 7L-12.1 -7Z" fill="none" stroke="#213b48" stroke-width="6"></path></g><g transform="translate(900 35)"><path d="M0 -23L19.9 -11.5L19.9 11.5L0 23L-19.9 11.5L-19.9 -11.5Z" fill="none" stroke="#213b48" stroke-width="6"></path></g><g transform="translate(599 286)"><path d="M0 -19L16.5 -9.5L16.5 9.5L0 19L-16.5 9.5L-16.5 -9.5Z" fill="none" stroke="#213b48" stroke-width="6"></path></g><g transform="translate(1498 1070)"><path d="M0 -17L14.7 -8.5L14.7 8.5L0 17L-14.7 8.5L-14.7 -8.5Z" fill="none" stroke="#213b48" stroke-width="6"></path></g><g transform="translate(966 297)"><path d="M0 -13L11.3 -6.5L11.3 6.5L0 13L-11.3 6.5L-11.3 -6.5Z" fill="none" stroke="#213b48" stroke-width="6"></path></g><g transform="translate(1471 244)"><path d="M0 -15L13 -7.5L13 7.5L0 15L-13 7.5L-13 -7.5Z" fill="none" stroke="#213b48" stroke-width="6"></path></g><g transform="translate(1398 388)"><path d="M0 -19L16.5 -9.5L16.5 9.5L0 19L-16.5 9.5L-16.5 -9.5Z" fill="none" stroke="#213b48" stroke-width="6"></path></g><g transform="translate(281 984)"><path d="M0 -13L11.3 -6.5L11.3 6.5L0 13L-11.3 6.5L-11.3 -6.5Z" fill="none" stroke="#213b48" stroke-width="6"></path></g><g transform="translate(1442 347)"><path d="M0 -17L14.7 -8.5L14.7 8.5L0 17L-14.7 8.5L-14.7 -8.5Z" fill="none" stroke="#213b48" stroke-width="6"></path></g><g transform="translate(630 138)"><path d="M0 -14L12.1 -7L12.1 7L0 14L-12.1 7L-12.1 -7Z" fill="none" stroke="#213b48" stroke-width="6"></path></g><g transform="translate(1552 684)"><path d="M0 -19L16.5 -9.5L16.5 9.5L0 19L-16.5 9.5L-16.5 -9.5Z" fill="none" stroke="#213b48" stroke-width="6"></path></g><g transform="translate(1225 564)"><path d="M0 -15L13 -7.5L13 7.5L0 15L-13 7.5L-13 -7.5Z" fill="none" stroke="#213b48" stroke-width="6"></path></g><g transform="translate(952 736)"><path d="M0 -18L15.6 -9L15.6 9L0 18L-15.6 9L-15.6 -9Z" fill="none" stroke="#213b48" stroke-width="6"></path></g><g transform="translate(1276 551)"><path d="M0 -13L11.3 -6.5L11.3 6.5L0 13L-11.3 6.5L-11.3 -6.5Z" fill="none" stroke="#213b48" stroke-width="6"></path></g><g transform="translate(1459 914)"><path d="M0 -17L14.7 -8.5L14.7 8.5L0 17L-14.7 8.5L-14.7 -8.5Z" fill="none" stroke="#213b48" stroke-width="6"></path></g><g transform="translate(1021 554)"><path d="M0 -16L13.9 -8L13.9 8L0 16L-13.9 8L-13.9 -8Z" fill="none" stroke="#213b48" stroke-width="6"></path></g><g transform="translate(1695 900)"><path d="M0 -23L19.9 -11.5L19.9 11.5L0 23L-19.9 11.5L-19.9 -11.5Z" fill="none" stroke="#213b48" stroke-width="6"></path></g><g transform="translate(188 25)"><path d="M0 -12L10.4 -6L10.4 6L0 12L-10.4 6L-10.4 -6Z" fill="none" stroke="#213b48" stroke-width="6"></path></g><g transform="translate(1404 805)"><path d="M0 -21L18.2 -10.5L18.2 10.5L0 21L-18.2 10.5L-18.2 -10.5Z" fill="none" stroke="#213b48" stroke-width="6"></path></g><g transform="translate(1372 332)"><path d="M0 -13L11.3 -6.5L11.3 6.5L0 13L-11.3 6.5L-11.3 -6.5Z" fill="none" stroke="#213b48" stroke-width="6"></path></g><g transform="translate(911 476)"><path d="M0 -16L13.9 -8L13.9 8L0 16L-13.9 8L-13.9 -8Z" fill="none" stroke="#213b48" stroke-width="6"></path></g><g transform="translate(1897 680)"><path d="M0 -22L19.1 -11L19.1 11L0 22L-19.1 11L-19.1 -11Z" fill="none" stroke="#213b48" stroke-width="6"></path></g><g transform="translate(1614 31)"><path d="M0 -20L17.3 -10L17.3 10L0 20L-17.3 10L-17.3 -10Z" fill="none" stroke="#213b48" stroke-width="6"></path></g><g transform="translate(490 841)"><path d="M0 -18L15.6 -9L15.6 9L0 18L-15.6 9L-15.6 -9Z" fill="none" stroke="#213b48" stroke-width="6"></path></g><g transform="translate(1579 390)"><path d="M0 -18L15.6 -9L15.6 9L0 18L-15.6 9L-15.6 -9Z" fill="none" stroke="#213b48" stroke-width="6"></path></g><g transform="translate(1162 367)"><path d="M0 -15L13 -7.5L13 7.5L0 15L-13 7.5L-13 -7.5Z" fill="none" stroke="#213b48" stroke-width="6"></path></g><g transform="translate(1556 777)"><path d="M0 -15L13 -7.5L13 7.5L0 15L-13 7.5L-13 -7.5Z" fill="none" stroke="#213b48" stroke-width="6"></path></g><g transform="translate(1758 46)"><path d="M0 -18L15.6 -9L15.6 9L0 18L-15.6 9L-15.6 -9Z" fill="none" stroke="#213b48" stroke-width="6"></path></g><g transform="translate(1627 799)"><path d="M0 -15L13 -7.5L13 7.5L0 15L-13 7.5L-13 -7.5Z" fill="none" stroke="#213b48" stroke-width="6"></path></g><g transform="translate(1513 432)"><path d="M0 -22L19.1 -11L19.1 11L0 22L-19.1 11L-19.1 -11Z" fill="none" stroke="#213b48" stroke-width="6"></path></g><g transform="translate(1143 1005)"><path d="M0 -23L19.9 -11.5L19.9 11.5L0 23L-19.9 11.5L-19.9 -11.5Z" fill="none" stroke="#213b48" stroke-width="6"></path></g><g transform="translate(1671 150)"><path d="M0 -21L18.2 -10.5L18.2 10.5L0 21L-18.2 10.5L-18.2 -10.5Z" fill="none" stroke="#213b48" stroke-width="6"></path></g><g transform="translate(853 120)"><path d="M0 -14L12.1 -7L12.1 7L0 14L-12.1 7L-12.1 -7Z" fill="none" stroke="#213b48" stroke-width="6"></path></g><g transform="translate(1115 1052)"><path d="M0 -17L14.7 -8.5L14.7 8.5L0 17L-14.7 8.5L-14.7 -8.5Z" fill="none" stroke="#213b48" stroke-width="6"></path></g><g transform="translate(1061 835)"><path d="M0 -24L20.8 -12L20.8 12L0 24L-20.8 12L-20.8 -12Z" fill="none" stroke="#213b48" stroke-width="6"></path></g><g transform="translate(1194 102)"><path d="M0 -12L10.4 -6L10.4 6L0 12L-10.4 6L-10.4 -6Z" fill="none" stroke="#213b48" stroke-width="6"></path></g><g transform="translate(1744 695)"><path d="M0 -23L19.9 -11.5L19.9 11.5L0 23L-19.9 11.5L-19.9 -11.5Z" fill="none" stroke="#213b48" stroke-width="6"></path></g><g transform="translate(1578 157)"><path d="M0 -12L10.4 -6L10.4 6L0 12L-10.4 6L-10.4 -6Z" fill="none" stroke="#213b48" stroke-width="6"></path></g><g transform="translate(1808 814)"><path d="M0 -17L14.7 -8.5L14.7 8.5L0 17L-14.7 8.5L-14.7 -8.5Z" fill="none" stroke="#213b48" stroke-width="6"></path></g><g transform="translate(534 292)"><path d="M0 -13L11.3 -6.5L11.3 6.5L0 13L-11.3 6.5L-11.3 -6.5Z" fill="none" stroke="#213b48" stroke-width="6"></path></g><g transform="translate(1132 846)"><path d="M0 -23L19.9 -11.5L19.9 11.5L0 23L-19.9 11.5L-19.9 -11.5Z" fill="none" stroke="#213b48" stroke-width="6"></path></g><g transform="translate(662 642)"><path d="M0 -12L10.4 -6L10.4 6L0 12L-10.4 6L-10.4 -6Z" fill="none" stroke="#213b48" stroke-width="6"></path></g><g transform="translate(454 569)"><path d="M0 -20L17.3 -10L17.3 10L0 20L-17.3 10L-17.3 -10Z" fill="none" stroke="#213b48" stroke-width="6"></path></g><g transform="translate(1022 982)"><path d="M0 -24L20.8 -12L20.8 12L0 24L-20.8 12L-20.8 -12Z" fill="none" stroke="#213b48" stroke-width="6"></path></g><g transform="translate(1269 819)"><path d="M0 -14L12.1 -7L12.1 7L0 14L-12.1 7L-12.1 -7Z" fill="none" stroke="#213b48" stroke-width="6"></path></g><g transform="translate(415 742)"><path d="M0 -19L16.5 -9.5L16.5 9.5L0 19L-16.5 9.5L-16.5 -9.5Z" fill="none" stroke="#213b48" stroke-width="6"></path></g><g transform="translate(845 56)"><path d="M0 -12L10.4 -6L10.4 6L0 12L-10.4 6L-10.4 -6Z" fill="none" stroke="#213b48" stroke-width="6"></path></g><g transform="translate(1098 143)"><path d="M0 -23L19.9 -11.5L19.9 11.5L0 23L-19.9 11.5L-19.9 -11.5Z" fill="none" stroke="#213b48" stroke-width="6"></path></g><g transform="translate(1249 52)"><path d="M0 -17L14.7 -8.5L14.7 8.5L0 17L-14.7 8.5L-14.7 -8.5Z" fill="none" stroke="#213b48" stroke-width="6"></path></g><g transform="translate(757 514)"><path d="M0 -21L18.2 -10.5L18.2 10.5L0 21L-18.2 10.5L-18.2 -10.5Z" fill="none" stroke="#213b48" stroke-width="6"></path></g><g transform="translate(467 624)"><path d="M0 -14L12.1 -7L12.1 7L0 14L-12.1 7L-12.1 -7Z" fill="none" stroke="#213b48" stroke-width="6"></path></g><g transform="translate(784 366)"><path d="M0 -17L14.7 -8.5L14.7 8.5L0 17L-14.7 8.5L-14.7 -8.5Z" fill="none" stroke="#213b48" stroke-width="6"></path></g><g transform="translate(1076 559)"><path d="M0 -15L13 -7.5L13 7.5L0 15L-13 7.5L-13 -7.5Z" fill="none" stroke="#213b48" stroke-width="6"></path></g><g transform="translate(1786 342)"><path d="M0 -23L19.9 -11.5L19.9 11.5L0 23L-19.9 11.5L-19.9 -11.5Z" fill="none" stroke="#213b48" stroke-width="6"></path></g><g transform="translate(867 434)"><path d="M0 -24L20.8 -12L20.8 12L0 24L-20.8 12L-20.8 -12Z" fill="none" stroke="#213b48" stroke-width="6"></path></g><g transform="translate(674 507)"><path d="M0 -15L13 -7.5L13 7.5L0 15L-13 7.5L-13 -7.5Z" fill="none" stroke="#213b48" stroke-width="6"></path></g><g transform="translate(740 863)"><path d="M0 -23L19.9 -11.5L19.9 11.5L0 23L-19.9 11.5L-19.9 -11.5Z" fill="none" stroke="#213b48" stroke-width="6"></path></g><g transform="translate(1163 13)"><path d="M0 -21L18.2 -10.5L18.2 10.5L0 21L-18.2 10.5L-18.2 -10.5Z" fill="none" stroke="#213b48" stroke-width="6"></path></g><g transform="translate(1693 247)"><path d="M0 -19L16.5 -9.5L16.5 9.5L0 19L-16.5 9.5L-16.5 -9.5Z" fill="none" stroke="#213b48" stroke-width="6"></path></g><g transform="translate(452 494)"><path d="M0 -19L16.5 -9.5L16.5 9.5L0 19L-16.5 9.5L-16.5 -9.5Z" fill="none" stroke="#213b48" stroke-width="6"></path></g><g transform="translate(330 140)"><path d="M0 -13L11.3 -6.5L11.3 6.5L0 13L-11.3 6.5L-11.3 -6.5Z" fill="none" stroke="#213b48" stroke-width="6"></path></g><g transform="translate(1193 833)"><path d="M0 -24L20.8 -12L20.8 12L0 24L-20.8 12L-20.8 -12Z" fill="none" stroke="#213b48" stroke-width="6"></path></g><g transform="translate(457 107)"><path d="M0 -18L15.6 -9L15.6 9L0 18L-15.6 9L-15.6 -9Z" fill="none" stroke="#213b48" stroke-width="6"></path></g><g transform="translate(1226 310)"><path d="M0 -18L15.6 -9L15.6 9L0 18L-15.6 9L-15.6 -9Z" fill="none" stroke="#213b48" stroke-width="6"></path></g><g transform="translate(413 152)"><path d="M0 -18L15.6 -9L15.6 9L0 18L-15.6 9L-15.6 -9Z" fill="none" stroke="#213b48" stroke-width="6"></path></g><g transform="translate(356 296)"><path d="M0 -23L19.9 -11.5L19.9 11.5L0 23L-19.9 11.5L-19.9 -11.5Z" fill="none" stroke="#213b48" stroke-width="6"></path></g><g transform="translate(644 344)"><path d="M0 -19L16.5 -9.5L16.5 9.5L0 19L-16.5 9.5L-16.5 -9.5Z" fill="none" stroke="#213b48" stroke-width="6"></path></g><g transform="translate(63 982)"><path d="M0 -15L13 -7.5L13 7.5L0 15L-13 7.5L-13 -7.5Z" fill="none" stroke="#213b48" stroke-width="6"></path></g><g transform="translate(598 74)"><path d="M0 -21L18.2 -10.5L18.2 10.5L0 21L-18.2 10.5L-18.2 -10.5Z" fill="none" stroke="#213b48" stroke-width="6"></path></g><g transform="translate(1276 613)"><path d="M0 -14L12.1 -7L12.1 7L0 14L-12.1 7L-12.1 -7Z" fill="none" stroke="#213b48" stroke-width="6"></path></g><g transform="translate(221 92)"><path d="M0 -22L19.1 -11L19.1 11L0 22L-19.1 11L-19.1 -11Z" fill="none" stroke="#213b48" stroke-width="6"></path></g><g transform="translate(1527 194)"><path d="M0 -19L16.5 -9.5L16.5 9.5L0 19L-16.5 9.5L-16.5 -9.5Z" fill="none" stroke="#213b48" stroke-width="6"></path></g><g transform="translate(643 899)"><path d="M0 -14L12.1 -7L12.1 7L0 14L-12.1 7L-12.1 -7Z" fill="none" stroke="#213b48" stroke-width="6"></path></g><g transform="translate(1599 239)"><path d="M0 -12L10.4 -6L10.4 6L0 12L-10.4 6L-10.4 -6Z" fill="none" stroke="#213b48" stroke-width="6"></path></g><g transform="translate(1168 157)"><path d="M0 -16L13.9 -8L13.9 8L0 16L-13.9 8L-13.9 -8Z" fill="none" stroke="#213b48" stroke-width="6"></path></g><g transform="translate(1850 248)"><path d="M0 -20L17.3 -10L17.3 10L0 20L-17.3 10L-17.3 -10Z" fill="none" stroke="#213b48" stroke-width="6"></path></g><g transform="translate(1865 320)"><path d="M0 -14L12.1 -7L12.1 7L0 14L-12.1 7L-12.1 -7Z" fill="none" stroke="#213b48" stroke-width="6"></path></g><g transform="translate(203 253)"><path d="M0 -21L18.2 -10.5L18.2 10.5L0 21L-18.2 10.5L-18.2 -10.5Z" fill="none" stroke="#213b48" stroke-width="6"></path></g><g transform="translate(1918 68)"><path d="M0 -13L11.3 -6.5L11.3 6.5L0 13L-11.3 6.5L-11.3 -6.5Z" fill="none" stroke="#213b48" stroke-width="6"></path></g><g transform="translate(90 582)"><path d="M0 -22L19.1 -11L19.1 11L0 22L-19.1 11L-19.1 -11Z" fill="none" stroke="#213b48" stroke-width="6"></path></g><g transform="translate(506 375)"><path d="M0 -23L19.9 -11.5L19.9 11.5L0 23L-19.9 11.5L-19.9 -11.5Z" fill="none" stroke="#213b48" stroke-width="6"></path></g><g transform="translate(54 751)"><path d="M0 -12L10.4 -6L10.4 6L0 12L-10.4 6L-10.4 -6Z" fill="none" stroke="#213b48" stroke-width="6"></path></g><g transform="translate(157 763)"><path d="M0 -18L15.6 -9L15.6 9L0 18L-15.6 9L-15.6 -9Z" fill="none" stroke="#213b48" stroke-width="6"></path></g><g transform="translate(192 995)"><path d="M0 -13L11.3 -6.5L11.3 6.5L0 13L-11.3 6.5L-11.3 -6.5Z" fill="none" stroke="#213b48" stroke-width="6"></path></g><g transform="translate(1116 624)"><path d="M0 -17L14.7 -8.5L14.7 8.5L0 17L-14.7 8.5L-14.7 -8.5Z" fill="none" stroke="#213b48" stroke-width="6"></path></g><g transform="translate(1559 103)"><path d="M0 -15L13 -7.5L13 7.5L0 15L-13 7.5L-13 -7.5Z" fill="none" stroke="#213b48" stroke-width="6"></path></g><g transform="translate(735 312)"><path d="M0 -23L19.9 -11.5L19.9 11.5L0 23L-19.9 11.5L-19.9 -11.5Z" fill="none" stroke="#213b48" stroke-width="6"></path></g><g transform="translate(27 191)"><path d="M0 -13L11.3 -6.5L11.3 6.5L0 13L-11.3 6.5L-11.3 -6.5Z" fill="none" stroke="#213b48" stroke-width="6"></path></g><g transform="translate(1004 748)"><path d="M0 -19L16.5 -9.5L16.5 9.5L0 19L-16.5 9.5L-16.5 -9.5Z" fill="none" stroke="#213b48" stroke-width="6"></path></g><g transform="translate(18 846)"><path d="M0 -24L20.8 -12L20.8 12L0 24L-20.8 12L-20.8 -12Z" fill="none" stroke="#213b48" stroke-width="6"></path></g><g transform="translate(1418 208)"><path d="M0 -21L18.2 -10.5L18.2 10.5L0 21L-18.2 10.5L-18.2 -10.5Z" fill="none" stroke="#213b48" stroke-width="6"></path></g><g transform="translate(438 824)"><path d="M0 -23L19.9 -11.5L19.9 11.5L0 23L-19.9 11.5L-19.9 -11.5Z" fill="none" stroke="#213b48" stroke-width="6"></path></g><g transform="translate(1245 1040)"><path d="M0 -13L11.3 -6.5L11.3 6.5L0 13L-11.3 6.5L-11.3 -6.5Z" fill="none" stroke="#213b48" stroke-width="6"></path></g><g transform="translate(289 364)"><path d="M0 -21L18.2 -10.5L18.2 10.5L0 21L-18.2 10.5L-18.2 -10.5Z" fill="none" stroke="#213b48" stroke-width="6"></path></g><g transform="translate(1032 179)"><path d="M0 -13L11.3 -6.5L11.3 6.5L0 13L-11.3 6.5L-11.3 -6.5Z" fill="none" stroke="#213b48" stroke-width="6"></path></g><g transform="translate(1788 750)"><path d="M0 -13L11.3 -6.5L11.3 6.5L0 13L-11.3 6.5L-11.3 -6.5Z" fill="none" stroke="#213b48" stroke-width="6"></path></g><g transform="translate(1262 414)"><path d="M0 -23L19.9 -11.5L19.9 11.5L0 23L-19.9 11.5L-19.9 -11.5Z" fill="none" stroke="#213b48" stroke-width="6"></path></g><g transform="translate(27 1074)"><path d="M0 -14L12.1 -7L12.1 7L0 14L-12.1 7L-12.1 -7Z" fill="none" stroke="#213b48" stroke-width="6"></path></g><g transform="translate(477 1074)"><path d="M0 -22L19.1 -11L19.1 11L0 22L-19.1 11L-19.1 -11Z" fill="none" stroke="#213b48" stroke-width="6"></path></g><g transform="translate(479 751)"><path d="M0 -21L18.2 -10.5L18.2 10.5L0 21L-18.2 10.5L-18.2 -10.5Z" fill="none" stroke="#213b48" stroke-width="6"></path></g><g transform="translate(112 269)"><path d="M0 -13L11.3 -6.5L11.3 6.5L0 13L-11.3 6.5L-11.3 -6.5Z" fill="none" stroke="#213b48" stroke-width="6"></path></g><g transform="translate(625 395)"><path d="M0 -15L13 -7.5L13 7.5L0 15L-13 7.5L-13 -7.5Z" fill="none" stroke="#213b48" stroke-width="6"></path></g><g transform="translate(1692 408)"><path d="M0 -22L19.1 -11L19.1 11L0 22L-19.1 11L-19.1 -11Z" fill="none" stroke="#213b48" stroke-width="6"></path></g><g transform="translate(20 48)"><path d="M0 -17L14.7 -8.5L14.7 8.5L0 17L-14.7 8.5L-14.7 -8.5Z" fill="none" stroke="#213b48" stroke-width="6"></path></g><g transform="translate(494 451)"><path d="M0 -16L13.9 -8L13.9 8L0 16L-13.9 8L-13.9 -8Z" fill="none" stroke="#213b48" stroke-width="6"></path></g><g transform="translate(1562 626)"><path d="M0 -20L17.3 -10L17.3 10L0 20L-17.3 10L-17.3 -10Z" fill="none" stroke="#213b48" stroke-width="6"></path></g><g transform="translate(1470 858)"><path d="M0 -23L19.9 -11.5L19.9 11.5L0 23L-19.9 11.5L-19.9 -11.5Z" fill="none" stroke="#213b48" stroke-width="6"></path></g><g transform="translate(1209 928)"><path d="M0 -13L11.3 -6.5L11.3 6.5L0 13L-11.3 6.5L-11.3 -6.5Z" fill="none" stroke="#213b48" stroke-width="6"></path></g><g transform="translate(100 421)"><path d="M0 -19L16.5 -9.5L16.5 9.5L0 19L-16.5 9.5L-16.5 -9.5Z" fill="none" stroke="#213b48" stroke-width="6"></path></g><g transform="translate(94 1045)"><path d="M0 -21L18.2 -10.5L18.2 10.5L0 21L-18.2 10.5L-18.2 -10.5Z" fill="none" stroke="#213b48" stroke-width="6"></path></g><g transform="translate(830 530)"><path d="M0 -14L12.1 -7L12.1 7L0 14L-12.1 7L-12.1 -7Z" fill="none" stroke="#213b48" stroke-width="6"></path></g><g transform="translate(1742 298)"><path d="M0 -15L13 -7.5L13 7.5L0 15L-13 7.5L-13 -7.5Z" fill="none" stroke="#213b48" stroke-width="6"></path></g><g transform="translate(1683 813)"><path d="M0 -24L20.8 -12L20.8 12L0 24L-20.8 12L-20.8 -12Z" fill="none" stroke="#213b48" stroke-width="6"></path></g><g transform="translate(1635 666)"><path d="M0 -24L20.8 -12L20.8 12L0 24L-20.8 12L-20.8 -12Z" fill="none" stroke="#213b48" stroke-width="6"></path></g><g transform="translate(1585 311)"><path d="M0 -14L12.1 -7L12.1 7L0 14L-12.1 7L-12.1 -7Z" fill="none" stroke="#213b48" stroke-width="6"></path></g><g transform="translate(675 1037)"><path d="M0 -23L19.9 -11.5L19.9 11.5L0 23L-19.9 11.5L-19.9 -11.5Z" fill="none" stroke="#213b48" stroke-width="6"></path></g><g transform="translate(1354 242)"><path d="M0 -24L20.8 -12L20.8 12L0 24L-20.8 12L-20.8 -12Z" fill="none" stroke="#213b48" stroke-width="6"></path></g><g transform="translate(1321 21)"><path d="M0 -17L14.7 -8.5L14.7 8.5L0 17L-14.7 8.5L-14.7 -8.5Z" fill="none" stroke="#213b48" stroke-width="6"></path></g><g transform="translate(1541 827)"><path d="M0 -20L17.3 -10L17.3 10L0 20L-17.3 10L-17.3 -10Z" fill="none" stroke="#213b48" stroke-width="6"></path></g><g transform="translate(792 907)"><path d="M0 -24L20.8 -12L20.8 12L0 24L-20.8 12L-20.8 -12Z" fill="none" stroke="#213b48" stroke-width="6"></path></g><g transform="translate(76 648)"><path d="M0 -19L16.5 -9.5L16.5 9.5L0 19L-16.5 9.5L-16.5 -9.5Z" fill="none" stroke="#213b48" stroke-width="6"></path></g><g transform="translate(7 977)"><path d="M0 -19L16.5 -9.5L16.5 9.5L0 19L-16.5 9.5L-16.5 -9.5Z" fill="none" stroke="#213b48" stroke-width="6"></path></g><g transform="translate(217 762)"><path d="M0 -22L19.1 -11L19.1 11L0 22L-19.1 11L-19.1 -11Z" fill="none" stroke="#213b48" stroke-width="6"></path></g><g transform="translate(1168 720)"><path d="M0 -19L16.5 -9.5L16.5 9.5L0 19L-16.5 9.5L-16.5 -9.5Z" fill="none" stroke="#213b48" stroke-width="6"></path></g><g transform="translate(1324 94)"><path d="M0 -22L19.1 -11L19.1 11L0 22L-19.1 11L-19.1 -11Z" fill="none" stroke="#213b48" stroke-width="6"></path></g><g transform="translate(1069 960)"><path d="M0 -19L16.5 -9.5L16.5 9.5L0 19L-16.5 9.5L-16.5 -9.5Z" fill="none" stroke="#213b48" stroke-width="6"></path></g><g transform="translate(699 170)"><path d="M0 -20L17.3 -10L17.3 10L0 20L-17.3 10L-17.3 -10Z" fill="none" stroke="#213b48" stroke-width="6"></path></g><g transform="translate(1761 847)"><path d="M0 -21L18.2 -10.5L18.2 10.5L0 21L-18.2 10.5L-18.2 -10.5Z" fill="none" stroke="#213b48" stroke-width="6"></path></g><g transform="translate(520 920)"><path d="M0 -18L15.6 -9L15.6 9L0 18L-15.6 9L-15.6 -9Z" fill="none" stroke="#213b48" stroke-width="6"></path></g><g transform="translate(159 698)"><path d="M0 -20L17.3 -10L17.3 10L0 20L-17.3 10L-17.3 -10Z" fill="none" stroke="#213b48" stroke-width="6"></path></g><g transform="translate(1342 927)"><path d="M0 -20L17.3 -10L17.3 10L0 20L-17.3 10L-17.3 -10Z" fill="none" stroke="#213b48" stroke-width="6"></path></g><g transform="translate(1034 389)"><path d="M0 -12L10.4 -6L10.4 6L0 12L-10.4 6L-10.4 -6Z" fill="none" stroke="#213b48" stroke-width="6"></path></g></g></svg>